<svg width="2048" height="606" xmlns="http://www.w3.org/2000/svg">
  <path d="M936.317.493c-10.2 0-18.56 8.358-18.56 18.578v114.078c0 10.218-8.32 18.554-18.56 18.554h-48.62c-10.2 0-18.56 8.36-18.56 18.554v114.126c0 10.196 8.36 18.532 18.56 18.532h48.62c10.24 0 18.56 8.358 18.56 18.578V586.82c0 10.195 8.36 18.555 18.56 18.555h114.12c10.22 0 18.56-8.36 18.56-18.555V321.493c0-10.22 8.36-18.578 18.54-18.578h114.1c10.2 0 18.56-8.336 18.56-18.532V170.257c0-10.194-8.36-18.554-18.56-18.554h-114.1c-10.18 0-18.54-8.336-18.54-18.554V19.07c0-10.22-8.34-18.578-18.56-18.578h-114.12M.277 586.82c0 10.195 8.36 18.555 18.58 18.555h114.1c10.2 0 18.56-8.36 18.56-18.555V321.507c0-10.218 8.36-18.57 18.56-18.57h114.08c10.2 0 18.56 8.352 18.56 18.57V586.82c0 10.195 8.34 18.555 18.56 18.555h114.1c10.2 0 18.56-8.36 18.56-18.555V321.507c0-10.218 8.36-18.57 18.54-18.57h114.12c10.2 0 18.54 8.352 18.54 18.57V586.82c0 10.195 8.36 18.555 18.56 18.555h114.1c10.2 0 18.56-8.36 18.56-18.555V170.28c0-10.195-8.36-18.553-18.56-18.553H18.857c-10.22 0-18.58 8.358-18.58 18.554V586.82m1291.1 0c0 10.195 8.36 18.555 18.56 18.555h114.12c10.18 0 18.54-8.36 18.54-18.555V321.507c0-10.218 8.34-18.57 18.56-18.57h114.08c10.2 0 18.58 8.352 18.58 18.57V586.82c0 10.195 8.34 18.555 18.56 18.555h114.1c10.18 0 18.54-8.36 18.54-18.555V321.507c0-10.218 8.34-18.57 18.54-18.57h114.1c10.22 0 18.56 8.352 18.56 18.57V586.82c0 10.195 8.36 18.555 18.58 18.555h114.1c10.2 0 18.54-8.36 18.54-18.555V170.28c0-10.195-8.34-18.553-18.54-18.553h-718.96c-10.2 0-18.56 8.358-18.56 18.554V586.82" fill="#231F20"/>
</svg>
